<svg clip-rule="evenodd" fill-rule="evenodd" stroke-linejoin="round" stroke-miterlimit="2" viewBox="0 0 667 667" xmlns="http://www.w3.org/2000/svg" xmlns:xlink="http://www.w3.org/1999/xlink"><clipPath id="a"><path clip-rule="evenodd" d="m0 0h666.66v666.66h-666.66z"/></clipPath><g><path d="m0 0h666.66v666.66h-666.66z" fill="none"/><g clip-path="url(#a)" fill-rule="nonzero"><path d="m-333.33-333.33c-184.093 0-333.33 149.237-333.33 333.33s149.237 333.33 333.33 333.33 333.33-149.237 333.33-333.33-149.237-333.33-333.33-333.33" fill="#89fba2" transform="matrix(0 -1 -1 0 333.33 0)"/><g fill="#4d4d4d"><path d="m0 34.978 2.915-2.915v-29.148l-2.915-2.915h-34.978l-2.915 2.915v29.148l2.915 2.915z" transform="translate(234.162 231.314)"/><path d="m0 204.039 2.915-2.915v-20.404l2.915-5.83 17.489-17.488h2.913l40.808 43.722 5.83 2.915h17.49l2.914-2.915v-29.149l-37.893-43.721v-2.916l34.979-34.979v-29.147l-2.915-2.915h-17.49l-5.829 2.915-58.296 58.296h-2.915v-116.592l-2.915-2.916h-34.978l-2.915 2.916v198.208l2.915 2.915z" transform="translate(458.707 231.314)"/><path d="m0 145.742 2.915-2.915v-139.912l-2.915-2.915h-34.978l-2.915 2.915v139.912l2.915 2.915z" transform="translate(234.162 289.611)"/><path d="m0 148.657 2.915-2.915v-72.87c0-13.214 2.768-22.833 8.306-28.858 5.539-6.021 13.455-9.037 23.756-9.037 8.745 0 14.816 2.529 18.219 7.58 3.397 5.055 5.1 11.271 5.1 18.655v84.53l2.915 2.915h34.978l2.915-2.915v-87.446c0-17.489-4.859-31.575-14.574-42.264-9.719-10.685-23.319-16.032-40.808-16.032-5.055 0-9.619.488-13.699 1.457-4.082.975-7.679 2.187-10.786 3.644-3.11 1.457-5.783 3.061-8.016 4.809-2.235 1.75-4.035 3.307-5.391 4.664h-2.915l-2.915-8.744-2.915-2.915h-32.063l-2.915 2.915v139.912l2.915 2.915z" transform="translate(299.69 286.696)"/><path d="m0 204.039 2.915-2.915v-198.208l-2.915-2.916h-34.978l-2.915 2.916v198.208l2.915 2.915z" transform="translate(168.449 231.314)"/></g></g></g></svg>